<svg xmlns="http://www.w3.org/2000/svg" xmlns:xlink="http://www.w3.org/1999/xlink" width="500" zoomAndPan="magnify" viewBox="0 0 375 374.999991" height="500" preserveAspectRatio="xMidYMid meet" version="1.0"><defs><clipPath id="bb8ad47e2b"><path d="M 90 160 L 136 160 L 136 264.839844 L 90 264.839844 Z M 90 160 " clip-rule="nonzero"/></clipPath></defs><rect x="-37.5" width="450" fill="#ffffff" y="-37.499999" height="449.999989" fill-opacity="0"/><rect x="-37.5" width="450" fill="#ffffff" y="-37.499999" height="449.999989" fill-opacity="0"/><rect x="-37.5" width="450" fill="#424242" y="-37.499999" height="449.999989" fill-opacity="0"/><path fill="#ffffff" d="M -0.871094 108.152344 C -0.871094 81.652344 20.601562 60.171875 47.09375 60.171875 L 326.164062 60.171875 C 352.652344 60.171875 374.128906 81.652344 374.128906 108.152344 L 374.128906 265.171875 C 374.128906 291.667969 352.652344 313.148438 326.164062 313.148438 L 47.09375 313.148438 C 20.601562 313.148438 -0.871094 291.667969 -0.871094 265.171875 Z M 47.09375 86.34375 C 35.050781 86.34375 25.289062 96.105469 25.289062 108.152344 L 25.289062 265.171875 C 25.289062 277.21875 35.050781 286.980469 47.09375 286.980469 L 326.164062 286.980469 C 338.203125 286.980469 347.964844 277.21875 347.964844 265.171875 L 347.964844 108.152344 C 347.964844 96.105469 338.203125 86.34375 326.164062 86.34375 Z M 47.09375 86.34375 " fill-opacity="1" fill-rule="evenodd"/><path fill="#ffffff" d="M 260.753906 247.726562 C 260.753906 240.5 266.613281 234.640625 273.835938 234.640625 L 308.722656 234.640625 C 315.945312 234.640625 321.800781 240.5 321.800781 247.726562 C 321.800781 254.953125 315.945312 260.808594 308.722656 260.808594 L 273.835938 260.808594 C 266.613281 260.808594 260.753906 254.953125 260.753906 247.726562 Z M 260.753906 247.726562 " fill-opacity="1" fill-rule="evenodd"/><path fill="#ffffff" d="M -0.871094 125.597656 C -0.871094 118.371094 4.984375 112.511719 12.210938 112.511719 L 361.046875 112.511719 C 368.269531 112.511719 374.128906 118.371094 374.128906 125.597656 C 374.128906 132.824219 368.269531 138.683594 361.046875 138.683594 L 12.210938 138.683594 C 4.984375 138.683594 -0.871094 132.824219 -0.871094 125.597656 Z M -0.871094 125.597656 " fill-opacity="1" fill-rule="evenodd"/><path fill="#5ce1e6" d="M 75.527344 250.050781 C 73.308594 250.050781 71.832031 249.3125 70.351562 247.835938 L 40.773438 218.257812 C 37.816406 215.300781 37.816406 210.863281 40.773438 207.90625 L 70.351562 178.328125 C 73.308594 175.371094 77.746094 175.371094 80.703125 178.328125 C 83.660156 181.285156 83.660156 185.722656 80.703125 188.679688 L 56.304688 213.082031 L 80.703125 237.480469 C 83.660156 240.441406 83.660156 244.875 80.703125 247.835938 C 79.226562 249.3125 77.746094 250.050781 75.527344 250.050781 Z M 75.527344 250.050781 " fill-opacity="1" fill-rule="nonzero"/><path fill="#5ce1e6" d="M 149.472656 250.050781 C 147.253906 250.050781 145.773438 249.3125 144.296875 247.835938 C 141.339844 244.875 141.339844 240.441406 144.296875 237.480469 L 168.695312 213.082031 L 144.296875 188.679688 C 141.339844 185.722656 141.339844 181.285156 144.296875 178.328125 C 147.253906 175.371094 151.691406 175.371094 154.648438 178.328125 L 184.226562 207.90625 C 187.183594 210.863281 187.183594 215.300781 184.226562 218.257812 L 154.648438 247.835938 C 153.167969 249.3125 151.691406 250.050781 149.472656 250.050781 Z M 149.472656 250.050781 " fill-opacity="1" fill-rule="nonzero"/><g clip-path="url(#bb8ad47e2b)"><path fill="#5ce1e6" d="M 97.710938 264.839844 C 96.972656 264.839844 96.230469 264.839844 95.492188 264.101562 C 91.796875 262.621094 89.578125 258.925781 91.054688 254.488281 L 120.632812 165.757812 C 122.113281 162.058594 125.808594 159.839844 130.246094 161.320312 C 133.945312 162.800781 136.160156 166.496094 134.683594 170.933594 L 105.105469 259.664062 C 103.625 262.621094 100.667969 264.839844 97.710938 264.839844 Z M 97.710938 264.839844 " fill-opacity="1" fill-rule="nonzero"/></g></svg>